<svg width="28" height="28" viewBox="0 0 28 28" fill="none" xmlns="http://www.w3.org/2000/svg">
    <rect width="28" height="28" rx="8" fill="#13EC5B"/>
    <path d="M6.825 22.725L2 17.9L4.05 15.85L5.375 17.175V11.075C5.375 9.675 5.8625 8.48333 6.8375 7.5C7.8125 6.51667 9 6.025 10.4 6.025C11.8 6.025 12.9875 6.51667 13.9625 7.5C14.9375 8.48333 15.425 9.675 15.425 11.075V17.7C15.425 18.2833 15.6375 18.775 16.0625 19.175C16.4875 19.575 16.9917 19.775 17.575 19.775C18.1583 19.775 18.6625 19.575 19.0875 19.175C19.5125 18.775 19.725 18.2833 19.725 17.7V11.525L18.4 12.875L16.375 10.8L21.175 6L26 10.825L23.95 12.875L22.625 11.525V17.7C22.625 19.1 22.1333 20.2833 21.15 21.25C20.1667 22.2167 18.975 22.7 17.575 22.7C16.175 22.7 14.9833 22.2167 14 21.25C13.0167 20.2833 12.525 19.1 12.525 17.7V11.075C12.525 10.4917 12.3167 9.9875 11.9 9.5625C11.4833 9.1375 10.9833 8.925 10.4 8.925C9.81667 8.925 9.31667 9.1375 8.9 9.5625C8.48333 9.9875 8.275 10.4917 8.275 11.075V17.175L9.6 15.85L11.625 17.925L6.825 22.725V22.725" fill="#102216"/>
</svg>