<svg width="1280" height="885" viewBox="0 0 1280 885" fill="none" xmlns="http://www.w3.org/2000/svg">
    <g opacity="0.1">
        <rect x="70.2504" y="65.2121" width="188" height="252" rx="10" transform="rotate(12 70.2504 65.2121)" stroke="#13EC5B" stroke-width="4"/>
        <rect x="1025.86" y="573.3" width="188" height="252" rx="10" transform="rotate(-12 1025.86 573.3)" stroke="#13EC5B" stroke-width="4"/>
        <rect x="272.274" y="516.37" width="126" height="190" rx="7" transform="rotate(-45 272.274 516.37)" stroke="#94A3B8" stroke-width="2"/>
        <rect x="902.63" y="274.304" width="158" height="222" rx="7" transform="rotate(45 902.63 274.304)" stroke="#94A3B8" stroke-width="2"/>
        <path d="M838.34 242.5L835.215 235.625L828.34 232.5L835.215 229.375L838.34 222.5L841.465 229.375L848.34 232.5L841.465 235.625L838.34 242.5V242.5M838.34 277.5L835.215 270.625L828.34 267.5L835.215 264.375L838.34 257.5L841.465 264.375L848.34 267.5L841.465 270.625L838.34 277.5V277.5M813.34 270L807.09 256.25L793.34 250L807.09 243.75L813.34 230L819.59 243.75L833.34 250L819.59 256.25L813.34 270V270M813.34 257.875L815.84 252.5L821.215 250L815.84 247.5L813.34 242.125L810.84 247.5L805.465 250L810.84 252.5L813.34 257.875V257.875M813.34 250V250V250V250V250V250V250V250V250V250" fill="#13EC5B" fill-opacity="0.3"/>
        <path d="M459.65 634.49L462.525 624.115L453.65 617.99L450.775 628.365L459.65 634.49V634.49M431.65 644.553L429.588 643.553C428.296 643.011 427.421 642.084 426.963 640.771C426.504 639.459 426.567 638.157 427.15 636.865L431.65 627.115V644.553V644.553M441.65 649.99C440.275 649.99 439.098 649.49 438.119 648.49C437.14 647.49 436.65 646.303 436.65 644.928V629.99L443.338 648.365C443.463 648.657 443.567 648.938 443.65 649.209C443.733 649.48 443.879 649.74 444.088 649.99H441.65V649.99M454.525 649.678C453.233 650.136 451.942 650.073 450.65 649.49C449.358 648.907 448.483 647.969 448.025 646.678L436.963 616.115C436.504 614.823 436.567 613.542 437.15 612.271C437.733 611 438.671 610.136 439.963 609.677L458.775 602.803C460.067 602.344 461.348 602.407 462.619 602.99C463.89 603.573 464.754 604.511 465.213 605.803L476.338 636.365C476.796 637.657 476.733 638.938 476.15 640.209C475.567 641.48 474.629 642.344 473.338 642.803L454.525 649.678V649.678M452.775 644.99L471.65 638.115V638.115V638.115L460.463 607.49V607.49V607.49L441.65 614.365V614.365V614.365L452.775 644.99V644.99V644.99V644.99M456.65 626.24V626.24V626.24V626.24V626.24V626.24V626.24V626.24V626.24V626.24V626.24V626.24V626.24V626.24" fill="#13EC5B" fill-opacity="0.3"/>
    </g>
</svg>