<svg width="144" height="29" viewBox="0 0 144 29" fill="none" xmlns="http://www.w3.org/2000/svg">
    <rect width="36" height="28.725" rx="8" fill="#13EC5B"/>
    <path d="M10.825 22.725L6 17.9L8.05 15.85L9.375 17.175V11.075C9.375 9.675 9.8625 8.48333 10.8375 7.5C11.8125 6.51667 13 6.025 14.4 6.025C15.8 6.025 16.9875 6.51667 17.9625 7.5C18.9375 8.48333 19.425 9.675 19.425 11.075V17.7C19.425 18.2833 19.6375 18.775 20.0625 19.175C20.4875 19.575 20.9917 19.775 21.575 19.775C22.1583 19.775 22.6625 19.575 23.0875 19.175C23.5125 18.775 23.725 18.2833 23.725 17.7V11.525L22.4 12.875L20.375 10.8L25.175 6L30 10.825L27.95 12.875L26.625 11.525V17.7C26.625 19.1 26.1333 20.2833 25.15 21.25C24.1667 22.2167 22.975 22.7 21.575 22.7C20.175 22.7 18.9833 22.2167 18 21.25C17.0167 20.2833 16.525 19.1 16.525 17.7V11.075C16.525 10.4917 16.3167 9.9875 15.9 9.5625C15.4833 9.1375 14.9833 8.925 14.4 8.925C13.8167 8.925 13.3167 9.1375 12.9 9.5625C12.4833 9.9875 12.275 10.4917 12.275 11.075V17.175L13.6 15.85L15.625 17.925L10.825 22.725V22.725" fill="#102216"/>
    <path d="M52.4 22.6025C51.3333 22.6025 50.3433 22.4092 49.43 22.0225C48.5167 21.6358 47.72 21.0958 47.04 20.4025C46.36 19.7092 45.83 18.8958 45.45 17.9625C45.07 17.0292 44.88 16.0092 44.88 14.9025C44.88 13.7958 45.0667 12.7725 45.44 11.8325C45.8133 10.8925 46.34 10.0792 47.02 9.3925C47.7 8.70583 48.4967 8.1725 49.41 7.7925C50.3233 7.4125 51.32 7.2225 52.4 7.2225C53.48 7.2225 54.45 7.4025 55.31 7.7625C56.17 8.1225 56.9 8.6025 57.5 9.2025C58.1 9.8025 58.5267 10.4692 58.78 11.2025L56.04 12.5225C55.7867 11.8025 55.3433 11.2058 54.71 10.7325C54.0767 10.2592 53.3067 10.0225 52.4 10.0225C51.52 10.0225 50.7467 10.2292 50.08 10.6425C49.4133 11.0558 48.8967 11.6258 48.53 12.3525C48.1633 13.0792 47.98 13.9292 47.98 14.9025C47.98 15.8758 48.1633 16.7292 48.53 17.4625C48.8967 18.1958 49.4133 18.7692 50.08 19.1825C50.7467 19.5958 51.52 19.8025 52.4 19.8025C53.3067 19.8025 54.0767 19.5658 54.71 19.0925C55.3433 18.6192 55.7867 18.0225 56.04 17.3025L58.78 18.6225C58.5267 19.3558 58.1 20.0225 57.5 20.6225C56.9 21.2225 56.17 21.7025 55.31 22.0625C54.45 22.4225 53.48 22.6025 52.4 22.6025ZM63.22 22.6025C62.4333 22.6025 61.7533 22.4758 61.18 22.2225C60.6067 21.9692 60.1667 21.6058 59.86 21.1325C59.5533 20.6592 59.4 20.0958 59.4 19.4425C59.4 18.8292 59.54 18.2858 59.82 17.8125C60.1 17.3392 60.53 16.9425 61.11 16.6225C61.69 16.3025 62.4133 16.0758 63.28 15.9425L66.62 15.4025V17.6025L63.82 18.1025C63.3933 18.1825 63.0667 18.3192 62.84 18.5125C62.6133 18.7058 62.5 18.9825 62.5 19.3425C62.5 19.6758 62.6267 19.9358 62.88 20.1225C63.1333 20.3092 63.4467 20.4025 63.82 20.4025C64.3133 20.4025 64.7467 20.2958 65.12 20.0825C65.4933 19.8692 65.7833 19.5792 65.99 19.2125C66.1967 18.8458 66.3 18.4425 66.3 18.0025V15.1625C66.3 14.7492 66.1367 14.4025 65.81 14.1225C65.4833 13.8425 65.04 13.7025 64.48 13.7025C63.9467 13.7025 63.4767 13.8492 63.07 14.1425C62.6633 14.4358 62.3667 14.8225 62.18 15.3025L59.78 14.1625C59.9933 13.5492 60.3333 13.0225 60.8 12.5825C61.2667 12.1425 61.8267 11.8025 62.48 11.5625C63.1333 11.3225 63.8467 11.2025 64.62 11.2025C65.54 11.2025 66.3533 11.3692 67.06 11.7025C67.7667 12.0358 68.3167 12.4992 68.71 13.0925C69.1033 13.6858 69.3 14.3758 69.3 15.1625V22.3625H66.5V20.6025L67.18 20.4825C66.86 20.9625 66.5067 21.3592 66.12 21.6725C65.7333 21.9858 65.3 22.2192 64.82 22.3725C64.34 22.5258 63.8067 22.6025 63.22 22.6025ZM71 22.3625V11.4425H73.8V14.0625L73.6 13.6825C73.84 12.7625 74.2367 12.1392 74.79 11.8125C75.3433 11.4858 76 11.3225 76.76 11.3225H77.4V13.9225H76.46C75.7267 13.9225 75.1333 14.1458 74.68 14.5925C74.2267 15.0392 74 15.6692 74 16.4825V22.3625H71ZM83.36 22.6025C82.2933 22.6025 81.34 22.3492 80.5 21.8425C79.66 21.3358 78.9967 20.6492 78.51 19.7825C78.0233 18.9158 77.78 17.9558 77.78 16.9025C77.78 15.8358 78.0267 14.8725 78.52 14.0125C79.0133 13.1525 79.68 12.4692 80.52 11.9625C81.36 11.4558 82.3 11.2025 83.34 11.2025C84.14 11.2025 84.85 11.3525 85.47 11.6525C86.09 11.9525 86.58 12.3758 86.94 12.9225L86.48 13.5225V7.2225H89.48V22.3625H86.68V20.3625L86.96 20.9825C86.5867 21.5158 86.08 21.9192 85.44 22.1925C84.8 22.4658 84.1067 22.6025 83.36 22.6025ZM83.72 19.9025C84.2667 19.9025 84.7467 19.7758 85.16 19.5225C85.5733 19.2692 85.8967 18.9158 86.13 18.4625C86.3633 18.0092 86.48 17.4892 86.48 16.9025C86.48 16.3158 86.3633 15.7958 86.13 15.3425C85.8967 14.8892 85.5733 14.5358 85.16 14.2825C84.7467 14.0292 84.2667 13.9025 83.72 13.9025C83.1733 13.9025 82.6833 14.0325 82.25 14.2925C81.8167 14.5525 81.48 14.9058 81.24 15.3525C81 15.7992 80.88 16.3158 80.88 16.9025C80.88 17.4892 81 18.0092 81.24 18.4625C81.48 18.9158 81.8167 19.2692 82.25 19.5225C82.6833 19.7758 83.1733 19.9025 83.72 19.9025ZM96.82 22.6025C95.8867 22.6025 95.01 22.4325 94.19 22.0925C93.37 21.7525 92.6633 21.2692 92.07 20.6425C91.4767 20.0158 91.0333 19.2758 90.74 18.4225L93.28 17.2825C93.6533 18.0958 94.17 18.7358 94.83 19.2025C95.49 19.6692 96.22 19.9025 97.02 19.9025C97.4467 19.9025 97.8133 19.8358 98.12 19.7025C98.4267 19.5692 98.6667 19.3858 98.84 19.1525C99.0133 18.9192 99.1 18.6425 99.1 18.3225C99.1 17.9758 98.9933 17.6792 98.78 17.4325C98.5667 17.1858 98.2333 16.9892 97.78 16.8425L94.86 15.8825C93.6733 15.4958 92.78 14.9458 92.18 14.2325C91.58 13.5192 91.28 12.6625 91.28 11.6625C91.28 10.7825 91.4967 10.0092 91.93 9.3425C92.3633 8.67583 92.97 8.15583 93.75 7.7825C94.53 7.40917 95.4267 7.2225 96.44 7.2225C97.3333 7.2225 98.16 7.37583 98.92 7.6825C99.68 7.98917 100.337 8.4225 100.89 8.9825C101.443 9.5425 101.86 10.2158 102.14 11.0025L99.62 12.1425C99.34 11.4492 98.92 10.9058 98.36 10.5125C97.8 10.1192 97.16 9.9225 96.44 9.9225C96.0267 9.9225 95.66 9.98917 95.34 10.1225C95.02 10.2558 94.7733 10.4458 94.6 10.6925C94.4267 10.9392 94.34 11.2225 94.34 11.5425C94.34 11.8892 94.4533 12.1925 94.68 12.4525C94.9067 12.7125 95.2467 12.9158 95.7 13.0625L98.56 13.9825C99.76 14.3692 100.657 14.9092 101.25 15.6025C101.843 16.2958 102.14 17.1425 102.14 18.1425C102.14 19.0092 101.913 19.7792 101.46 20.4525C101.007 21.1258 100.383 21.6525 99.59 22.0325C98.7967 22.4125 97.8733 22.6025 96.82 22.6025ZM106.3 22.3625L102.54 11.4425H105.64L108.28 19.3225L107.2 19.3025L110.14 11.4425H112.74L115.66 19.3025L114.58 19.3225L117.22 11.4425H120.34L116.56 22.3625H113.96L110.92 13.9225H111.96L108.9 22.3625H106.3ZM124.14 22.6025C123.353 22.6025 122.673 22.4758 122.1 22.2225C121.527 21.9692 121.087 21.6058 120.78 21.1325C120.473 20.6592 120.32 20.0958 120.32 19.4425C120.32 18.8292 120.46 18.2858 120.74 17.8125C121.02 17.3392 121.45 16.9425 122.03 16.6225C122.61 16.3025 123.333 16.0758 124.2 15.9425L127.54 15.4025V17.6025L124.74 18.1025C124.313 18.1825 123.987 18.3192 123.76 18.5125C123.533 18.7058 123.42 18.9825 123.42 19.3425C123.42 19.6758 123.547 19.9358 123.8 20.1225C124.053 20.3092 124.367 20.4025 124.74 20.4025C125.233 20.4025 125.667 20.2958 126.04 20.0825C126.413 19.8692 126.703 19.5792 126.91 19.2125C127.117 18.8458 127.22 18.4425 127.22 18.0025V15.1625C127.22 14.7492 127.057 14.4025 126.73 14.1225C126.403 13.8425 125.96 13.7025 125.4 13.7025C124.867 13.7025 124.397 13.8492 123.99 14.1425C123.583 14.4358 123.287 14.8225 123.1 15.3025L120.7 14.1625C120.913 13.5492 121.253 13.0225 121.72 12.5825C122.187 12.1425 122.747 11.8025 123.4 11.5625C124.053 11.3225 124.767 11.2025 125.54 11.2025C126.46 11.2025 127.273 11.3692 127.98 11.7025C128.687 12.0358 129.237 12.4992 129.63 13.0925C130.023 13.6858 130.22 14.3758 130.22 15.1625V22.3625H127.42V20.6025L128.1 20.4825C127.78 20.9625 127.427 21.3592 127.04 21.6725C126.653 21.9858 126.22 22.2192 125.74 22.3725C125.26 22.5258 124.727 22.6025 124.14 22.6025ZM131.92 26.3625V11.4425H134.72V13.5225L134.46 12.9225C134.82 12.3758 135.31 11.9525 135.93 11.6525C136.55 11.3525 137.26 11.2025 138.06 11.2025C139.1 11.2025 140.04 11.4558 140.88 11.9625C141.72 12.4692 142.387 13.1525 142.88 14.0125C143.373 14.8725 143.62 15.8358 143.62 16.9025C143.62 17.9558 143.377 18.9158 142.89 19.7825C142.403 20.6492 141.74 21.3358 140.9 21.8425C140.06 22.3492 139.107 22.6025 138.04 22.6025C137.293 22.6025 136.603 22.4658 135.97 22.1925C135.337 21.9192 134.827 21.5158 134.44 20.9825L134.92 20.3625V26.3625H131.92ZM137.68 19.9025C138.24 19.9025 138.733 19.7758 139.16 19.5225C139.587 19.2692 139.92 18.9158 140.16 18.4625C140.4 18.0092 140.52 17.4892 140.52 16.9025C140.52 16.3158 140.4 15.7992 140.16 15.3525C139.92 14.9058 139.587 14.5525 139.16 14.2925C138.733 14.0325 138.24 13.9025 137.68 13.9025C137.147 13.9025 136.67 14.0292 136.25 14.2825C135.83 14.5358 135.503 14.8892 135.27 15.3425C135.037 15.7958 134.92 16.3158 134.92 16.9025C134.92 17.4892 135.037 18.0092 135.27 18.4625C135.503 18.9158 135.83 19.2692 136.25 19.5225C136.67 19.7758 137.147 19.9025 137.68 19.9025Z" fill="#0F172A"/>
</svg>